<mxfile host="Electron" modified="2023-12-18T20:34:56.694Z" agent="Mozilla/5.0 (X11; Linux x86_64) AppleWebKit/537.36 (KHTML, like Gecko) draw.io/21.6.5 Chrome/114.0.5735.243 Electron/25.3.1 Safari/537.36" etag="JhNe2gaQ44T54D-5d0u5" version="21.6.5" type="device">
  <diagram name="Page-1" id="j71TKinvxgFV14pcCoKv">
    <mxGraphModel dx="2118" dy="4142" grid="1" gridSize="10" guides="1" tooltips="1" connect="1" arrows="1" fold="1" page="1" pageScale="1" pageWidth="827" pageHeight="1169" math="0" shadow="0">
      <root>
        <mxCell id="0" />
        <mxCell id="1" parent="0" />
        <mxCell id="8Q46yCBwavfJm_B2d7v--56" value="" style="outlineConnect=0;dashed=0;verticalLabelPosition=bottom;verticalAlign=top;align=center;html=1;shape=mxgraph.aws3.internet_2;fillColor=#D2D3D3;gradientColor=none;" vertex="1" parent="1">
          <mxGeometry x="230" y="-2834" width="155" height="122" as="geometry" />
        </mxCell>
        <object label="" id="8Q46yCBwavfJm_B2d7v--39">
          <mxCell style="rounded=1;arcSize=10;dashed=0;fillColor=none;gradientColor=none;strokeWidth=2;" vertex="1" parent="1">
            <mxGeometry x="-76" y="-2910" width="265" height="360" as="geometry" />
          </mxCell>
        </object>
        <mxCell id="8Q46yCBwavfJm_B2d7v--36" value="" style="rounded=1;arcSize=10;dashed=1;strokeColor=#ff0000;fillColor=none;gradientColor=none;dashPattern=8 4;strokeWidth=2;" vertex="1" parent="1">
          <mxGeometry x="-1" y="-2790" width="130" height="90" as="geometry" />
        </mxCell>
        <mxCell id="8Q46yCBwavfJm_B2d7v--34" value="" style="rounded=1;arcSize=10;dashed=0;fillColor=none;gradientColor=none;strokeWidth=2;" vertex="1" parent="1">
          <mxGeometry x="-14" y="-2810" width="153" height="130" as="geometry" />
        </mxCell>
        <object label="" id="8Q46yCBwavfJm_B2d7v--32">
          <mxCell style="rounded=1;arcSize=10;dashed=0;fillColor=none;gradientColor=none;strokeWidth=2;" vertex="1" parent="1">
            <mxGeometry x="-41" y="-2850" width="200" height="200" as="geometry" />
          </mxCell>
        </object>
        <mxCell id="8Q46yCBwavfJm_B2d7v--37" style="edgeStyle=orthogonalEdgeStyle;rounded=0;orthogonalLoop=1;jettySize=auto;html=1;entryX=0.5;entryY=1;entryDx=0;entryDy=0;entryPerimeter=0;" edge="1" parent="1" source="8Q46yCBwavfJm_B2d7v--2" target="8Q46yCBwavfJm_B2d7v--1">
          <mxGeometry relative="1" as="geometry">
            <Array as="points">
              <mxPoint x="-28" y="-2745" />
              <mxPoint x="-28" y="-2690" />
              <mxPoint x="64" y="-2690" />
            </Array>
          </mxGeometry>
        </mxCell>
        <mxCell id="8Q46yCBwavfJm_B2d7v--2" value="" style="outlineConnect=0;dashed=0;verticalLabelPosition=bottom;verticalAlign=top;align=center;html=1;shape=mxgraph.aws3.cloud_2;fillColor=#F58534;gradientColor=none;" vertex="1" parent="1">
          <mxGeometry x="-171" y="-2782.5" width="75" height="75" as="geometry" />
        </mxCell>
        <mxCell id="8Q46yCBwavfJm_B2d7v--48" style="edgeStyle=orthogonalEdgeStyle;rounded=0;orthogonalLoop=1;jettySize=auto;html=1;exitX=0.5;exitY=0;exitDx=0;exitDy=0;exitPerimeter=0;" edge="1" parent="1" source="8Q46yCBwavfJm_B2d7v--3" target="8Q46yCBwavfJm_B2d7v--45">
          <mxGeometry relative="1" as="geometry" />
        </mxCell>
        <mxCell id="8Q46yCBwavfJm_B2d7v--3" value="" style="outlineConnect=0;dashed=0;verticalLabelPosition=bottom;verticalAlign=top;align=center;html=1;shape=mxgraph.aws3.management_console;fillColor=#D2D3D3;gradientColor=none;" vertex="1" parent="1">
          <mxGeometry x="-663" y="-2680" width="63" height="63" as="geometry" />
        </mxCell>
        <mxCell id="8Q46yCBwavfJm_B2d7v--4" value="" style="outlineConnect=0;dashed=0;verticalLabelPosition=bottom;verticalAlign=top;align=center;html=1;shape=mxgraph.aws3.mobile_client;fillColor=#D2D3D3;gradientColor=none;" vertex="1" parent="1">
          <mxGeometry x="-640.5" y="-2560" width="40.5" height="63" as="geometry" />
        </mxCell>
        <mxCell id="8Q46yCBwavfJm_B2d7v--13" value="" style="outlineConnect=0;dashed=0;verticalLabelPosition=bottom;verticalAlign=top;align=center;html=1;shape=mxgraph.aws3.internet_2;fillColor=#D2D3D3;gradientColor=none;" vertex="1" parent="1">
          <mxGeometry x="-501" y="-2820" width="300" height="290" as="geometry" />
        </mxCell>
        <mxCell id="8Q46yCBwavfJm_B2d7v--38" style="edgeStyle=orthogonalEdgeStyle;rounded=0;orthogonalLoop=1;jettySize=auto;html=1;entryX=0.448;entryY=-0.003;entryDx=0;entryDy=0;entryPerimeter=0;" edge="1" parent="1" source="8Q46yCBwavfJm_B2d7v--19" target="8Q46yCBwavfJm_B2d7v--2">
          <mxGeometry relative="1" as="geometry" />
        </mxCell>
        <mxCell id="8Q46yCBwavfJm_B2d7v--19" value="" style="dashed=0;outlineConnect=0;html=1;align=center;labelPosition=center;verticalLabelPosition=bottom;verticalAlign=top;shape=mxgraph.weblogos.github" vertex="1" parent="1">
          <mxGeometry x="-421" y="-2800" width="75" height="75" as="geometry" />
        </mxCell>
        <mxCell id="8Q46yCBwavfJm_B2d7v--14" style="edgeStyle=orthogonalEdgeStyle;rounded=0;orthogonalLoop=1;jettySize=auto;html=1;exitX=1;exitY=0.5;exitDx=0;exitDy=0;exitPerimeter=0;" edge="1" parent="1" source="8Q46yCBwavfJm_B2d7v--3" target="8Q46yCBwavfJm_B2d7v--19">
          <mxGeometry relative="1" as="geometry">
            <Array as="points">
              <mxPoint x="-531" y="-2648" />
              <mxPoint x="-531" y="-2760" />
            </Array>
          </mxGeometry>
        </mxCell>
        <mxCell id="8Q46yCBwavfJm_B2d7v--25" style="edgeStyle=orthogonalEdgeStyle;rounded=0;orthogonalLoop=1;jettySize=auto;html=1;exitX=0.98;exitY=0.98;exitDx=0;exitDy=0;exitPerimeter=0;" edge="1" parent="1" source="8Q46yCBwavfJm_B2d7v--3" target="8Q46yCBwavfJm_B2d7v--2">
          <mxGeometry relative="1" as="geometry">
            <mxPoint x="-161" y="-2618" as="targetPoint" />
          </mxGeometry>
        </mxCell>
        <mxCell id="8Q46yCBwavfJm_B2d7v--15" style="edgeStyle=orthogonalEdgeStyle;rounded=0;orthogonalLoop=1;jettySize=auto;html=1;exitX=1;exitY=0.5;exitDx=0;exitDy=0;exitPerimeter=0;entryX=0;entryY=0.867;entryDx=0;entryDy=0;entryPerimeter=0;" edge="1" parent="1" source="8Q46yCBwavfJm_B2d7v--4" target="8Q46yCBwavfJm_B2d7v--2">
          <mxGeometry relative="1" as="geometry">
            <Array as="points">
              <mxPoint x="-531" y="-2528" />
              <mxPoint x="-531" y="-2570" />
            </Array>
          </mxGeometry>
        </mxCell>
        <mxCell id="8Q46yCBwavfJm_B2d7v--57" style="edgeStyle=orthogonalEdgeStyle;rounded=0;orthogonalLoop=1;jettySize=auto;html=1;exitX=1;exitY=0.5;exitDx=0;exitDy=0;exitPerimeter=0;entryX=0;entryY=0.5;entryDx=0;entryDy=0;entryPerimeter=0;" edge="1" parent="1" source="8Q46yCBwavfJm_B2d7v--1" target="8Q46yCBwavfJm_B2d7v--55">
          <mxGeometry relative="1" as="geometry">
            <Array as="points">
              <mxPoint x="89" y="-2750" />
              <mxPoint x="170" y="-2750" />
              <mxPoint x="170" y="-2761" />
            </Array>
          </mxGeometry>
        </mxCell>
        <mxCell id="8Q46yCBwavfJm_B2d7v--1" value="" style="outlineConnect=0;dashed=0;verticalLabelPosition=bottom;verticalAlign=top;align=center;html=1;shape=mxgraph.aws3.ec2;fillColor=#F58534;gradientColor=none;" vertex="1" parent="1">
          <mxGeometry x="39" y="-2771.5" width="50" height="53" as="geometry" />
        </mxCell>
        <mxCell id="8Q46yCBwavfJm_B2d7v--33" value="" style="dashed=0;html=1;shape=mxgraph.aws3.virtual_private_cloud;fillColor=#F58536;gradientColor=none;dashed=0;" vertex="1" parent="1">
          <mxGeometry x="-21" y="-2870" width="52" height="36" as="geometry" />
        </mxCell>
        <mxCell id="8Q46yCBwavfJm_B2d7v--35" value="" style="dashed=0;html=1;shape=mxgraph.aws3.permissions;fillColor=#D9A741;gradientColor=none;dashed=0;" vertex="1" parent="1">
          <mxGeometry x="-4" y="-2820" width="20" height="20" as="geometry" />
        </mxCell>
        <mxCell id="8Q46yCBwavfJm_B2d7v--40" value="" style="dashed=0;html=1;shape=mxgraph.aws3.cloud;fillColor=#F58536;gradientColor=none;dashed=0;" vertex="1" parent="1">
          <mxGeometry x="-56" y="-2930" width="52" height="36" as="geometry" />
        </mxCell>
        <mxCell id="8Q46yCBwavfJm_B2d7v--42" value="&lt;font style=&quot;font-size: 10px;&quot;&gt;&lt;b style=&quot;background-color: rgb(255, 153, 51);&quot;&gt;Subnet&lt;/b&gt;&lt;/font&gt;" style="strokeWidth=1;html=1;shadow=0;dashed=0;shape=mxgraph.ios.iTextInput;strokeColor=#444444;buttonText=;fontSize=8;whiteSpace=wrap;align=center;fillColor=#FF9933;fontColor=#FFFFFF;" vertex="1" parent="1">
          <mxGeometry x="38" y="-2820" width="61" height="15" as="geometry" />
        </mxCell>
        <mxCell id="8Q46yCBwavfJm_B2d7v--43" value="&lt;b style=&quot;&quot;&gt;&lt;font style=&quot;font-size: 10px;&quot;&gt;Security Group&lt;/font&gt;&lt;/b&gt;" style="strokeWidth=1;html=1;shadow=0;dashed=0;shape=mxgraph.ios.iTextInput;strokeColor=#444444;buttonText=;fontSize=8;whiteSpace=wrap;align=center;labelBackgroundColor=#FF9933;fontColor=#FFFFFF;fillColor=#FF9933;" vertex="1" parent="1">
          <mxGeometry x="19" y="-2797" width="100" height="15" as="geometry" />
        </mxCell>
        <mxCell id="8Q46yCBwavfJm_B2d7v--45" value="" style="shadow=0;dashed=0;html=1;labelPosition=center;verticalLabelPosition=bottom;verticalAlign=top;align=center;outlineConnect=0;shape=mxgraph.veeam.3d.hyper_v_host;movable=1;resizable=1;rotatable=1;deletable=1;editable=1;locked=0;connectable=1;" vertex="1" parent="1">
          <mxGeometry x="-710" y="-2850" width="110" height="98" as="geometry" />
        </mxCell>
        <mxCell id="8Q46yCBwavfJm_B2d7v--46" value="&lt;font style=&quot;font-size: 10px;&quot;&gt;&lt;b style=&quot;background-color: rgb(255, 153, 51);&quot;&gt;Proxmox&lt;/b&gt;&lt;/font&gt;" style="strokeWidth=1;html=1;shadow=0;dashed=0;shape=mxgraph.ios.iTextInput;strokeColor=#444444;buttonText=;fontSize=8;whiteSpace=wrap;align=center;fillColor=#FF9933;fontColor=#FFFFFF;rotation=15;movable=1;resizable=1;rotatable=1;deletable=1;editable=1;locked=0;connectable=1;" vertex="1" parent="1">
          <mxGeometry x="-710" y="-2800" width="59" height="15" as="geometry" />
        </mxCell>
        <mxCell id="8Q46yCBwavfJm_B2d7v--49" value="OpenProject" style="shape=callout;whiteSpace=wrap;html=1;perimeter=calloutPerimeter;" vertex="1" parent="1">
          <mxGeometry x="-720" y="-2890" width="109" height="50" as="geometry" />
        </mxCell>
        <mxCell id="8Q46yCBwavfJm_B2d7v--54" value="" style="verticalLabelPosition=bottom;html=1;verticalAlign=top;align=center;strokeColor=none;fillColor=#00BEF2;shape=mxgraph.azure.git_repository;" vertex="1" parent="1">
          <mxGeometry x="-660" y="-2677" width="40" height="37" as="geometry" />
        </mxCell>
        <mxCell id="8Q46yCBwavfJm_B2d7v--55" value="" style="verticalLabelPosition=bottom;html=1;verticalAlign=top;align=center;strokeColor=none;fillColor=#00BEF2;shape=mxgraph.azure.website_generic;pointerEvents=1;" vertex="1" parent="1">
          <mxGeometry x="282.5" y="-2782" width="50" height="42.5" as="geometry" />
        </mxCell>
      </root>
    </mxGraphModel>
  </diagram>
</mxfile>
